<?xml version="1.0" encoding="utf-8"?>
<!-- Generator: Adobe Illustrator 16.0.0, SVG Export Plug-In . SVG Version: 6.00 Build 0)  -->
<!DOCTYPE svg PUBLIC "-//W3C//DTD SVG 1.1//EN" "http://www.w3.org/Graphics/SVG/1.1/DTD/svg11.dtd">
<svg version="1.1" id="Layer_1" xmlns="http://www.w3.org/2000/svg" xmlns:xlink="http://www.w3.org/1999/xlink" x="0px" y="0px"
	 width="69.887px" height="36.731px" viewBox="2.646 0 69.887 36.731" enable-background="new 2.646 0 69.887 36.731"
	 xml:space="preserve">
<g>
	<g>
		<polygon fill="#BF91BC" points="66.229,6.305 66.229,0 64.827,0 64.827,6.305 58.523,6.305 58.523,7.705 64.827,7.705 
			64.827,14.008 66.229,14.008 66.229,7.705 72.532,7.705 72.532,6.305 		"/>
		<path fill="#BF91BC" d="M33.283,36.732l-5.306-12.333H9.48L4.174,36.732H2.646L17.798,1.361h1.862l15.153,35.371H33.283z
			 M18.707,2.699l-8.605,20.408h17.254L18.707,2.699z"/>
		<path fill="#BF91BC" d="M45.616,23.348l-1.386,0.048l9.511,13.335h-1.815L41.554,22.105h2.199c3.346,0,5.496-0.287,7.838-2.247
			c2.246-2.342,3.011-4.781,3.011-7.552c0-3.06-1.482-6.453-4.206-8.222c-2.149-1.385-4.731-1.433-8.89-1.433h-6.644v34.08h-1.435
			V1.361h8.078c5.497,0,7.647,0.526,9.415,1.481c2.82,1.483,5.019,5.306,5.116,9.417c0,0.096,0,0.143,0,0.24
			C56.036,16.896,53.167,23.107,45.616,23.348z"/>
	</g>
</g>
</svg>
