<?xml version="1.0" encoding="utf-8"?>
<!-- Generator: Adobe Illustrator 16.0.0, SVG Export Plug-In . SVG Version: 6.00 Build 0)  -->
<!DOCTYPE svg PUBLIC "-//W3C//DTD SVG 1.1//EN" "http://www.w3.org/Graphics/SVG/1.1/DTD/svg11.dtd">
<svg version="1.1" id="Layer_1" xmlns="http://www.w3.org/2000/svg" xmlns:xlink="http://www.w3.org/1999/xlink" x="0px" y="0px"
	 width="54.656px" height="54.656px" viewBox="0 0 54.656 54.656" enable-background="new 0 0 54.656 54.656" xml:space="preserve">
<g>
	<circle fill="#E2E156" cx="27.328" cy="27.328" r="27.328"/>
	<g>
		<path fill="#FFFFFF" d="M28.386,20.53l0.281-3.306c0,0,0.214-1.155,1.404-1.155c1.191,0,9.883,0,9.883,0s0.998,0.221,0.409,1.719
			c0.499,1.407,0.13,3.018,0.13,3.018l-12.108,0.269V20.53z"/>
		<g>
			<path fill-rule="evenodd" clip-rule="evenodd" d="M25.303,27.964c0.319-1.631,0.576-3.252,0.898-4.871
				c0.089-0.452,0.144-0.91,0.284-1.348c0.261-0.81,0.768-1.212,1.606-1.215c4.413-0.01,8.819-0.012,13.232,0.001
				c0.898,0.003,1.459,0.475,1.678,1.424c0.286,1.246,0.508,2.506,0.758,3.761c0.147,0.746,0.293,1.492,0.44,2.242
				c0.244,0.025,0.459,0.025,0.663,0.071c0.691,0.159,1.152,0.727,1.156,1.47c0.012,2.047,0.013,4.093,0,6.139
				c-0.006,0.931-0.463,1.354-1.692,1.605c0,0.484,0.01,0.98-0.002,1.475c-0.019,0.75-0.407,1.158-1.154,1.18
				c-0.693,0.021-1.388,0.021-2.08-0.001c-0.706-0.021-1.118-0.515-1.146-1.22c-0.02-0.497-0.004-1.011-0.004-1.61
				c-3.487,0-6.947,0-10.498,0c0,0.6,0.003,0.994,0,1.465c-0.007,0.867-0.407,1.318-1.266,1.332
				c-0.623,0.011-1.247,0.029-1.869,0.019c-0.846-0.014-1.239-0.402-1.248-1.239c-0.005-0.477,0.113-0.949,0.113-1.416
				c-1.335-0.233-1.587-0.666-1.587-1.97c0-1.797,0-3.595,0-5.393C23.586,28.561,23.941,28.053,25.303,27.964z M26.643,28.068
				c5.376,0,10.708,0,16.063,0c-0.014,0-0.014-0.356-0.039-0.492c-0.3-1.535-0.599-3.096-0.908-4.629
				c-0.206-1.016-0.049-0.979-1.189-0.982c-3.933-0.01-7.864-0.011-11.797-0.01c-0.196,0-0.408-0.033-0.583,0.032
				c-0.167,0.062-0.379,0.202-0.427,0.354c-0.138,0.439-0.205,0.952-0.295,1.405C27.195,25.158,26.923,26.268,26.643,28.068z
				 M27.295,33.649c0.936,0.011,1.711-0.739,1.724-1.669c0.014-0.926-0.748-1.711-1.676-1.729c-0.918-0.018-1.71,0.752-1.725,1.679
				C25.602,32.857,26.362,33.637,27.295,33.649z M43.761,31.979c0.008-0.939-0.737-1.711-1.67-1.727
				c-0.917-0.016-1.709,0.754-1.727,1.679c-0.018,0.927,0.743,1.705,1.68,1.718C42.982,33.662,43.752,32.913,43.761,31.979z"/>
			<path fill-rule="evenodd" clip-rule="evenodd" d="M13.741,27.468c0-1.8,0.001-3.263-0.001-4.88c0-0.159,0.033-0.322-0.039-0.445
				c-0.074-0.129-0.251-0.247-0.393-0.258c-0.109-0.009-0.287,0.148-0.34,0.269c-0.065,0.153-0.043,0.322-0.043,0.498
				c-0.002,1.601-0.002,3.016-0.002,4.816c-0.601,0-1.178,0-1.808,0c-0.009,0-0.028-0.254-0.028-0.407
				c-0.002-1.832-0.004-3.649,0-5.481c0.004-1.366,0.789-2.133,2.157-2.135c1.174-0.001,2.35-0.047,3.522,0.015
				c2.068,0.109,4.07-0.165,6.035-0.808c0.758-0.248,1.541-0.421,2.315-0.619c0.592-0.152,1.103,0.106,1.235,0.607
				c0.139,0.535-0.13,0.986-0.74,1.158c-1.999,0.563-3.888,1.108-5.888,1.668c-0.979,0.274-0.938,0.384-0.938,1.405
				c0,5.194,0,10.388,0,15.582c0,0.936-0.498,1.466-1.154,1.446c-0.631-0.019-1.038-0.534-1.038-1.449
				c0-2.952-0.027-5.957-0.027-8.909c0-1.345-0.714-2.073-2.073-2.073C14.266,27.468,14.037,27.468,13.741,27.468z"/>
			<path fill-rule="evenodd" clip-rule="evenodd" d="M12.068,28.391c0.871,0,1.742-0.008,2.613,0.003
				c0.705,0.008,1.049,0.34,1.057,1.051c0.015,1.262,0.015,2.524,0,3.787c-0.008,0.737-0.354,1.065-1.094,1.068
				c-1.725,0.004-3.449,0.006-5.174,0c-0.737-0.003-1.068-0.335-1.072-1.08c-0.008-1.262-0.009-2.524,0-3.787
				c0.005-0.706,0.341-1.033,1.057-1.04C10.325,28.385,11.196,28.391,12.068,28.391z"/>
			<path fill-rule="evenodd" clip-rule="evenodd" d="M18.14,16.83c-0.013,1.106-0.905,1.982-2.011,1.978
				c-1.107-0.006-1.989-0.892-1.989-2.001c0-1.127,0.921-2.034,2.039-2.007C17.287,14.825,18.152,15.721,18.14,16.83z"/>
			<path fill-rule="evenodd" clip-rule="evenodd" d="M34.687,15.86c1.53,0,3.06-0.002,4.59,0.001
				c1.123,0.003,1.598,0.475,1.599,1.582c0.001,0.604,0.024,1.211-0.013,1.814c-0.013,0.2-0.182,0.391-0.28,0.585
				c-0.089-0.202-0.244-0.4-0.256-0.606c-0.034-0.621-0.006-1.245-0.014-1.868c-0.008-0.687-0.246-0.921-0.94-0.922
				c-3.113-0.003-6.227-0.002-9.34,0c-0.731,0.001-0.94,0.215-0.947,0.963c-0.006,0.658,0.014,1.317-0.016,1.975
				c-0.006,0.156-0.163,0.305-0.25,0.458c-0.104-0.154-0.292-0.304-0.3-0.463c-0.033-0.675-0.02-1.352-0.013-2.027
				c0.007-0.973,0.504-1.48,1.484-1.488C31.555,15.852,33.121,15.86,34.687,15.86z"/>
			<path fill-rule="evenodd" clip-rule="evenodd" d="M13.743,35.185c0.68-0.067,1.29-0.128,1.952-0.192
				c0.009,0.046,0.05,0.157,0.05,0.269c0.005,1.137,0.012,2.273,0,3.41c-0.007,0.759-0.434,1.249-1.037,1.227
				c-0.584-0.021-0.96-0.494-0.964-1.235C13.738,37.511,13.743,36.359,13.743,35.185z"/>
			<path fill-rule="evenodd" clip-rule="evenodd" d="M35.311,17.377c0.653-0.259,0.892,0.173,1.166,0.591
				c0.369-0.272,0.529-0.915,1.221-0.578c-0.262,0.341-0.521,0.682-0.807,1.052c0.28,0.363,0.558,0.72,0.846,1.093
				c-0.577,0.177-0.577,0.177-1.219-0.588c-0.074,0.069-0.154,0.129-0.217,0.206c-0.354,0.444-0.952,0.646-1.478,0.483
				c-0.076-0.023-0.152-0.085-0.2-0.15c-0.415-0.544-0.823-0.527-1.287,0.003c-0.115,0.13-0.38,0.129-0.576,0.188
				c-0.03-0.039-0.06-0.08-0.088-0.119c0.31-0.69,0.603-1.389,0.935-2.068c0.153-0.314,0.672-0.25,0.832,0.092
				c0.28,0.607,0.547,1.221,0.849,1.903c0.303-0.377,0.566-0.702,0.835-1.038C35.845,18.081,35.591,17.745,35.311,17.377z"/>
			<path fill-rule="evenodd" clip-rule="evenodd" d="M31.986,17.802c0,0.638,0,1.216,0,1.783c0,0.152-0.527,0.032-0.5-0.421
				c0.027-0.437,0.064-0.877,0.064-1.264c-0.293-0.21-0.861,0.131-0.738-0.588c0.643,0,1.275-0.012,1.893,0.011
				c0.11,0.003,0.225,0.145,0.333,0.223c-0.105,0.086-0.31,0.206-0.43,0.247C32.481,17.835,32.586,17.802,31.986,17.802z"/>
			<path fill-rule="evenodd" clip-rule="evenodd" d="M37.986,17.268h0.6c0,0.6,0,1.8,0,2.4h-0.6
				C37.986,19.068,37.986,17.868,37.986,17.268z"/>
			<path fill-rule="evenodd" clip-rule="evenodd" fill="#FFFFFF" d="M26.643,28.068c0.28-1.8,0.553-2.912,0.826-4.323
				c0.09-0.454,0.157-0.94,0.295-1.379c0.047-0.151,0.259-0.306,0.427-0.368c0.175-0.065,0.387-0.042,0.583-0.042
				c3.933-0.001,7.865-0.011,11.797,0c1.14,0.003,0.983-0.049,1.189,0.967c0.309,1.533,0.607,3.121,0.908,4.655
				c0.025,0.136,0.025,0.491,0.039,0.491C37.35,28.068,32.019,28.068,26.643,28.068z"/>
			<path fill-rule="evenodd" clip-rule="evenodd" fill="#FFFFFF" d="M27.295,33.649c-0.933-0.013-1.693-0.792-1.677-1.719
				c0.015-0.926,0.807-1.696,1.725-1.679c0.928,0.017,1.69,0.803,1.676,1.729C29.006,32.91,28.23,33.66,27.295,33.649z"/>
			<path fill-rule="evenodd" clip-rule="evenodd" fill="#FFFFFF" d="M43.761,31.979c-0.009,0.934-0.779,1.683-1.717,1.67
				c-0.937-0.013-1.698-0.791-1.68-1.718c0.018-0.925,0.81-1.695,1.727-1.679C43.024,30.268,43.77,31.04,43.761,31.979z"/>
		</g>
	</g>
</g>
</svg>
