<?xml version="1.0" encoding="utf-8"?>
<!-- Generator: Adobe Illustrator 16.0.0, SVG Export Plug-In . SVG Version: 6.00 Build 0)  -->
<!DOCTYPE svg PUBLIC "-//W3C//DTD SVG 1.1//EN" "http://www.w3.org/Graphics/SVG/1.1/DTD/svg11.dtd">
<svg version="1.1" id="Layer_1" xmlns="http://www.w3.org/2000/svg" xmlns:xlink="http://www.w3.org/1999/xlink" x="0px" y="0px"
	 width="39px" height="37.831px" viewBox="0 0 39 37.831" enable-background="new 0 0 39 37.831" xml:space="preserve">
<g>
	<path fill="#80B48F" d="M29.821,0.481l-0.182-0.09L28.859,0l-0.78,0.39v0.001l-8.58,4.29l-8.33-4.167l-0.25-0.124L10.14,0
		L9.36,0.391l0,0L0,5.07v32.761l10.14-5.07l8.411,4.205l0.169,0.085l0.78,0.391l0.779-0.391l0.368-0.185l8.212-4.105L39,37.831V5.07
		L29.821,0.481z M9.36,31.406l-7.8,3.899V6.036l7.8-3.9V31.406z M18.72,35.305l-7.8-3.899V2.136l7.8,3.9V35.305z M28.079,31.406
		l-7.8,3.899V6.036l7.8-3.9V31.406z M37.439,35.305l-7.8-3.899V2.136l7.8,3.9V35.305z"/>
</g>
</svg>
