<?xml version="1.0" encoding="utf-8"?>
<!-- Generator: Adobe Illustrator 16.0.0, SVG Export Plug-In . SVG Version: 6.00 Build 0)  -->
<!DOCTYPE svg PUBLIC "-//W3C//DTD SVG 1.1//EN" "http://www.w3.org/Graphics/SVG/1.1/DTD/svg11.dtd">
<svg version="1.1" id="Layer_1" xmlns="http://www.w3.org/2000/svg" xmlns:xlink="http://www.w3.org/1999/xlink" x="0px" y="0px"
	 width="87.232px" height="111.711px" viewBox="0 0 87.232 111.711" enable-background="new 0 0 87.232 111.711"
	 xml:space="preserve">
<g>
	<text transform="matrix(1 0 0 1 0 107.4341)" fill="#FFFFFF" font-family="'Roboto-Light'" font-size="15.782">¿Que Hacer?</text>
	<g>
		<path fill="#E2E156" d="M44.072,29.719c-1.339,0-2.737,0.416-3.779,1.16c-0.297,0.208-0.356,0.446-0.237,0.744l0.476,1.101
			c0.119,0.238,0.387,0.476,0.833,0.268c0.298-0.119,1.19-0.773,2.41-0.773c1.488,0,2.41,0.625,2.41,2.112
			c0,2.56-3.601,4.106-3.601,8.153v0.356c0,0.596,0.179,0.804,0.655,0.804h1.16c0.417,0,0.595-0.208,0.595-0.804v-0.416
			c0-3.095,3.898-4.701,3.898-8.272C48.892,31.415,46.898,29.719,44.072,29.719z"/>
		<path fill="#E2E156" d="M43.805,46.233c-1.042,0-1.875,0.803-1.875,1.845c0,1.041,0.833,1.874,1.875,1.874
			c1.041,0,1.845-0.833,1.845-1.874C45.649,47.036,44.846,46.233,43.805,46.233z"/>
		<path fill="#E2E156" d="M24.263,9.045l6.379,5.312c0.186,0.156,0.453,0.164,0.647,0c0.232-0.195,0.275-0.561,0.097-0.814
			l-4.907-6.924c-0.021-0.027-0.05-0.051-0.072-0.078c-0.29-0.394-0.728-0.65-1.226-0.65c-0.871,0-1.578,0.773-1.578,1.728
			c0,0.508,0.203,0.958,0.52,1.274C24.164,8.943,24.201,8.995,24.263,9.045z"/>
		<path fill="#E2E156" d="M42.987,10.324c0.033,0.24,0.227,0.426,0.48,0.434c0.303,0.012,0.58-0.23,0.618-0.539l0.999-8.428
			c0.003-0.034-0.002-0.071-0.001-0.106c0.049-0.486-0.104-0.971-0.474-1.304c-0.646-0.584-1.688-0.484-2.329,0.224
			c-0.34,0.377-0.491,0.848-0.468,1.295c-0.004,0.065-0.011,0.128,0.001,0.207L42.987,10.324z"/>
		<path fill="#E2E156" d="M55.994,14.02l6.924-4.907c0.027-0.021,0.051-0.05,0.078-0.072c0.393-0.29,0.65-0.729,0.65-1.226
			c0-0.871-0.773-1.578-1.729-1.578c-0.508,0-0.957,0.203-1.273,0.52c-0.051,0.042-0.104,0.079-0.154,0.14l-5.311,6.38
			c-0.156,0.186-0.164,0.453,0,0.647C55.375,14.156,55.74,14.199,55.994,14.02z"/>
		<path fill="#E2E156" d="M43.624,16.404c-11.047,0-20,8.955-20,20c0,6.505,3.115,12.271,7.926,15.92l-0.009,0.005
			c0.092,0.062,0.187,0.134,0.284,0.21c0.01,0.007,0.019,0.015,0.027,0.021c1.548,1.222,3.771,4.075,3.771,7.842v14.034h16V60.402
			c0-4,2.311-6.87,4-8.011l-0.006-0.006c4.857-3.646,8.006-9.44,8.006-15.981C63.625,25.359,54.671,16.404,43.624,16.404z
			 M49.625,72.436h-12v-6.034h12V72.436z M54.417,50.786c-0.025,0.021-0.053,0.041-0.078,0.062
			c-2.213,1.574-4.715,4.964-4.715,9.554v4h-5V58.12h-2v6.282h-5v-4c0-4.307-2.441-7.762-4.515-9.397
			c-0.016-0.014-0.035-0.027-0.054-0.043c-0.065-0.051-0.13-0.1-0.192-0.146c-0.034-0.029-0.068-0.058-0.104-0.084
			c-4.534-3.44-7.135-8.662-7.135-14.327c0-9.925,8.075-18,18-18c9.924,0,18,8.075,18,18C61.625,42.106,58.998,47.347,54.417,50.786
			z"/>
	</g>
</g>
</svg>
