<?xml version="1.0" encoding="utf-8"?>
<!-- Generator: Adobe Illustrator 18.0.0, SVG Export Plug-In . SVG Version: 6.00 Build 0)  -->
<!DOCTYPE svg PUBLIC "-//W3C//DTD SVG 1.1//EN" "http://www.w3.org/Graphics/SVG/1.1/DTD/svg11.dtd">
<svg version="1.1" id="Capa_1" xmlns="http://www.w3.org/2000/svg" xmlns:xlink="http://www.w3.org/1999/xlink" x="0px" y="0px"
	 viewBox="0 0 63.9 72.6" enable-background="new 0 0 63.9 72.6" xml:space="preserve">
<g>
	<polygon fill="#3BC6F3" points="39.9,14.8 49.3,5.4 49.3,22.5 11.8,58 11.8,72.6 14.6,72.6 14.6,59.3 52.1,23.8 52.1,5.4 
		61.9,14.8 63.9,12.8 50.9,0 37.8,12.8 	"/>
	<polygon fill="#3BC6F3" points="49.3,59.3 49.3,72.6 52.1,72.6 52.1,58 37.3,44 35.3,46 	"/>
	<polygon fill="#3BC6F3" points="14.6,22.5 14.6,5.4 24,14.8 26.1,12.8 13,0 0,12.8 2,14.8 11.8,5.4 11.8,23.8 26.8,37.8 28.6,35.8 
			"/>
</g>
</svg>
