<?xml version="1.0" encoding="utf-8"?>
<!-- Generator: Adobe Illustrator 16.0.0, SVG Export Plug-In . SVG Version: 6.00 Build 0)  -->
<!DOCTYPE svg PUBLIC "-//W3C//DTD SVG 1.1//EN" "http://www.w3.org/Graphics/SVG/1.1/DTD/svg11.dtd">
<svg version="1.1" id="Layer_1" xmlns="http://www.w3.org/2000/svg" xmlns:xlink="http://www.w3.org/1999/xlink" x="0px" y="0px"
	 width="31.231px" height="58.061px" viewBox="14.163 0 31.231 58.061" enable-background="new 14.163 0 31.231 58.061"
	 xml:space="preserve">
<g>
	<g>
		<path fill="#E2E156" d="M30.127,23.18c-1.044,0-2.135,0.325-2.948,0.904c-0.231,0.162-0.278,0.349-0.185,0.58l0.37,0.858
			c0.093,0.187,0.302,0.372,0.65,0.209c0.232-0.092,0.929-0.603,1.88-0.603c1.161,0,1.88,0.488,1.88,1.647
			c0,1.997-2.81,3.203-2.81,6.361v0.278c0,0.463,0.139,0.625,0.512,0.625h0.905c0.324,0,0.464-0.162,0.464-0.625v-0.325
			c0-2.414,3.041-3.667,3.041-6.452C33.888,24.504,32.331,23.18,30.127,23.18z"/>
		<path fill="#E2E156" d="M29.919,36.062c-0.812,0-1.462,0.624-1.462,1.438c0,0.812,0.649,1.462,1.462,1.462s1.44-0.65,1.44-1.462
			C31.359,36.687,30.731,36.062,29.919,36.062z"/>
		<path fill="#E2E156" d="M14.677,7.055l4.977,4.145c0.144,0.122,0.352,0.127,0.504,0c0.182-0.152,0.216-0.439,0.076-0.636
			l-3.827-5.401c-0.016-0.021-0.04-0.039-0.056-0.061c-0.227-0.307-0.568-0.506-0.956-0.506c-0.679,0-1.231,0.603-1.231,1.346
			c0,0.397,0.159,0.748,0.406,0.995C14.6,6.975,14.628,7.014,14.677,7.055z"/>
		<path fill="#E2E156" d="M29.28,8.052c0.026,0.188,0.178,0.333,0.375,0.339c0.236,0.009,0.452-0.181,0.482-0.42l0.779-6.574
			c0.001-0.028-0.001-0.056-0.001-0.084c0.038-0.378-0.08-0.756-0.369-1.017c-0.503-0.455-1.317-0.377-1.815,0.175
			c-0.266,0.294-0.383,0.663-0.365,1.009c-0.002,0.052-0.009,0.1,0,0.162L29.28,8.052z"/>
		<path fill="#E2E156" d="M39.426,10.936l5.4-3.828c0.022-0.018,0.041-0.039,0.061-0.057c0.308-0.226,0.508-0.568,0.508-0.956
			c0-0.678-0.604-1.229-1.348-1.229c-0.396,0-0.745,0.157-0.993,0.405c-0.04,0.033-0.08,0.061-0.119,0.109l-4.144,4.975
			c-0.122,0.145-0.13,0.353,0,0.505C38.943,11.041,39.228,11.074,39.426,10.936z"/>
		<path fill="#E2E156" d="M29.777,12.795c-8.617,0-15.6,6.985-15.6,15.6c0,5.074,2.43,9.571,6.183,12.417l-0.007,0.004
			c0.072,0.05,0.146,0.105,0.221,0.164c0.008,0.006,0.014,0.013,0.022,0.019c1.208,0.951,2.942,3.177,2.942,6.117v10.945h12.479
			V47.115c0-3.121,1.803-5.359,3.121-6.25l-0.005-0.005c3.788-2.844,6.243-7.364,6.243-12.466
			C45.377,19.78,38.395,12.795,29.777,12.795z M34.457,56.499h-9.359v-4.706h9.359V56.499z M38.196,39.613
			c-0.021,0.017-0.04,0.032-0.061,0.049c-1.727,1.228-3.679,3.872-3.679,7.452v3.118h-3.9v-4.9h-1.559v4.9h-3.9v-3.118
			c0-3.358-1.905-6.054-3.522-7.331c-0.012-0.012-0.027-0.021-0.042-0.033c-0.051-0.039-0.102-0.079-0.15-0.115
			c-0.027-0.023-0.053-0.043-0.082-0.065c-3.536-2.682-5.565-6.755-5.565-11.175c0-7.742,6.299-14.04,14.04-14.04
			s14.041,6.298,14.041,14.04C43.818,32.843,41.77,36.931,38.196,39.613z"/>
	</g>
</g>
</svg>
