<?xml version="1.0" encoding="utf-8"?>
<!-- Generator: Adobe Illustrator 18.0.0, SVG Export Plug-In . SVG Version: 6.00 Build 0)  -->
<!DOCTYPE svg PUBLIC "-//W3C//DTD SVG 1.1//EN" "http://www.w3.org/Graphics/SVG/1.1/DTD/svg11.dtd">
<svg version="1.1" id="Capa_1" xmlns="http://www.w3.org/2000/svg" xmlns:xlink="http://www.w3.org/1999/xlink" x="0px" y="0px"
	 viewBox="0 0 40 65" enable-background="new 0 0 40 65" xml:space="preserve">
<g>
	<g>
		<path fill="#67C296" d="M20,13.8c-3.3,0-6,2.7-6,6c0,3.3,2.7,6,6,6c3.3,0,6-2.7,6-6C26,16.4,23.3,13.8,20,13.8z M20,23.8
			c-2.2,0-4-1.8-4-4c0-2.2,1.8-4,4-4c2.2,0,4,1.8,4,4C24,22,22.2,23.8,20,23.8z"/>
	</g>
	<path fill="#67C296" d="M40,20C40,9,31,0,20,0S0,9,0,20c0,6.5,3.1,12.3,7.9,15.9l0,0C8,36,8.1,36.1,8.2,36.1c0,0,0,0,0,0
		C9.8,37.4,12,40.2,12,44v14h2.1C14,58.4,14,58.7,14,59c0,3.3,2.7,6,6,6c3.3,0,6-2.7,6-6c0-0.3,0-0.7-0.1-1H28V44c0-4,2.3-6.9,4-8
		l0,0C36.9,32.3,40,26.5,40,20z M30.8,34.4C30.8,34.4,30.7,34.4,30.8,34.4C28.5,36,26,39.4,26,44v1.7V48v2v6h-0.8h-2.5h-0.1
		c0.8,0.7,1.4,1.8,1.4,3c0,2.2-1.8,4-4,4c-2.2,0-4-1.8-4-4c0-1.2,0.5-2.3,1.4-3h-0.1h-2.5H14v-6v-2v-2.3V44c0-4.3-2.4-7.8-4.5-9.4
		c0,0,0,0-0.1,0c-0.1-0.1-0.1-0.1-0.2-0.1c0,0-0.1-0.1-0.1-0.1C4.6,30.9,2,25.7,2,20c0-9.9,8.1-18,18-18s18,8.1,18,18
		C38,25.7,35.4,30.9,30.8,34.4z"/>
</g>
</svg>
