<?xml version="1.0" encoding="utf-8"?>
<!-- Generator: Adobe Illustrator 18.0.0, SVG Export Plug-In . SVG Version: 6.00 Build 0)  -->
<!DOCTYPE svg PUBLIC "-//W3C//DTD SVG 1.1//EN" "http://www.w3.org/Graphics/SVG/1.1/DTD/svg11.dtd">
<svg version="1.1" id="Capa_1" xmlns="http://www.w3.org/2000/svg" xmlns:xlink="http://www.w3.org/1999/xlink" x="0px" y="0px"
	 viewBox="0 0 26.5 45" enable-background="new 0 0 26.5 45" xml:space="preserve">
<g>
	<path fill="#EFE923" d="M24.5,0H2.4C1,0,0,1,0,2.4v40.5C0,44,1,45,2.2,45h22.2c1.1,0,2.2-1,2.2-2.2V2.4C26.7,1,25.7,0,24.5,0z
		 M25.1,42.7c0,0.3-0.3,0.6-0.6,0.6H2.4c-0.3,0-0.6-0.3-0.6-0.6v-7.8h23.3C25.1,34.9,25.1,42.7,25.1,42.7z M25.1,33.3H1.8V6.8h23.3
		C25.1,6.8,25.1,33.3,25.1,33.3z M25.1,5.1H1.8V2.4c0-0.3,0.3-0.6,0.6-0.6h22.2c0.3,0,0.6,0.3,0.6,0.6L25.1,5.1L25.1,5.1z"/>
	<rect x="10.8" y="38.3" fill="#EFE923" width="5" height="1.6"/>
</g>
</svg>
