<?xml version="1.0" encoding="utf-8"?>
<!-- Generator: Adobe Illustrator 18.0.0, SVG Export Plug-In . SVG Version: 6.00 Build 0)  -->
<!DOCTYPE svg PUBLIC "-//W3C//DTD SVG 1.1//EN" "http://www.w3.org/Graphics/SVG/1.1/DTD/svg11.dtd">
<svg version="1.1" id="Capa_1" xmlns="http://www.w3.org/2000/svg" xmlns:xlink="http://www.w3.org/1999/xlink" x="0px" y="0px"
	 viewBox="0 0 30 30" enable-background="new 0 0 30 30" xml:space="preserve">
<g>
	<circle fill="#EFE923" cx="15" cy="15" r="15"/>
	<path fill="#DCA0C8" d="M21.7,12.4L21.7,12.4L21.7,12.4L25,9.2c0.4-0.4,0.6-0.8,0.6-1.4s-0.2-1-0.6-1.4c-0.8-0.8-2-0.8-2.8,0
		l-3.9,3.9l0,0l-3.9,4l-3.9-3.9l0.1-0.1l0,0l1.2-1.2L7.9,5.4L7.3,6.1l3.2,3.2L9.9,9.8L7.3,7.2L6.7,7.8l2.6,2.6l-0.5,0.5L5.6,7.7
		L5,8.3L8.7,12l1.1-1.1l0,0l0,0l3.9,3.9l-2.9,2.9l-1.7-1.7l-0.6,0.6l0.6,0.6L5,21.4c-0.4,0.4-0.6,0.8-0.6,1.4c0,0.5,0.2,1,0.6,1.4
		c0.8,0.8,2,0.8,2.8,0l4.2-4.2l0.6,0.6l0.6-0.6l-1.7-1.7l2.9-2.9l2.9,2.9l-1.7,1.7l0.6,0.6l0.6-0.6l4.2,4.2c0.4,0.4,0.8,0.6,1.4,0.6
		c0.5,0,1-0.2,1.4-0.6c0.8-0.8,0.8-2,0-2.8l-4.1-4.2l0.6-0.6L19.4,16l-1.7,1.7l-2.9-2.9l2.3-2.3L21.7,12.4L21.7,12.4L21.7,12.4z
		 M7.3,23.5c-0.5,0.5-1.2,0.5-1.7,0c-0.2-0.2-0.4-0.5-0.4-0.8c0-0.3,0.1-0.6,0.4-0.8l4.2-4.2l1.7,1.7L7.3,23.5z M19,17.6l4.2,4.2
		c0.5,0.5,0.5,1.2,0,1.7c-0.2,0.2-0.5,0.4-0.8,0.4s-0.6-0.1-0.8-0.4l-4.2-4.2L19,17.6z M22.8,6.9c0.5-0.5,1.2-0.5,1.7,0
		c0.2,0.2,0.4,0.5,0.4,0.8c0,0.3-0.1,0.6-0.4,0.8l-2.9,2.9h-3.3l0.5-0.5l0,0l0.1-0.1L22.8,6.9z"/>
</g>
</svg>
