<?xml version="1.0" encoding="utf-8"?>
<!-- Generator: Adobe Illustrator 18.0.0, SVG Export Plug-In . SVG Version: 6.00 Build 0)  -->
<!DOCTYPE svg PUBLIC "-//W3C//DTD SVG 1.1//EN" "http://www.w3.org/Graphics/SVG/1.1/DTD/svg11.dtd">
<svg version="1.1" id="Capa_1" xmlns="http://www.w3.org/2000/svg" xmlns:xlink="http://www.w3.org/1999/xlink" x="0px" y="0px"
	 viewBox="0 0 21.1 30" enable-background="new 0 0 21.1 30" xml:space="preserve">
<g>
	<path fill="#38363A" d="M0.5,8.2V9v1.8c0,1.4,0.3,2.7,1,3.8c-0.9,1.5-1.4,3.3-1.4,5.1C0.1,25.4,4.9,30,10.7,30c4.3,0,7.9-2.4,9.6-6
		L1.2,5.1C0.8,5.5,0.5,6.2,0.5,6.8C0.5,6.8,0.5,8.2,0.5,8.2z"/>
	<path opacity="0.5" fill="#FFFFFF" enable-background="new    " d="M16.4,0c-0.2,0-0.4,0-0.6,0.1c-1.3,0.3-2.2,1.4-2.1,2.8
		c0,0.1,0,0.2,0,0.3c-1-0.2-2.2-0.3-3.4-0.3c-1,0-2.1,0.1-3,0.2c0-0.1,0-0.1,0-0.2c0.1-1.3-0.8-2.5-2.1-2.8C5,0,4.8,0,4.6,0
		C3.5,0,2.6,0.6,2.1,1.7C1.6,2.9,1.2,4,1.1,5C0.6,5.5,0.4,6.1,0.4,6.8v1.4V9v1.8c0,1.4,0.3,2.7,1,3.8C0.5,16,0,17.8,0,19.6
		c0,5.7,4.8,10.3,10.6,10.3c5.8,0,10.5-4.6,10.5-10.2v-0.3c0-0.8-0.3-1.5-0.9-2c0.2-0.6,0.2-1.2,0-1.8c-0.1-0.4-0.3-0.8-0.5-1.1
		c1-1.6,1-3.2,1-3.9V9V8.1V6.8c0-0.7-0.3-1.4-0.8-1.9c-0.2-0.9-0.5-2-1-3.2C18.5,0.6,17.5,0,16.4,0L16.4,0z"/>
	<g>
		<path fill="#010101" d="M8.8,19.5V22H15c-0.8,1.7-2.5,2.7-4.3,2.7c-2.1,0-3.9-1.1-4.8-3.1c-0.3-0.6-0.4-1.3-0.4-2
			c0-2.8,2.2-5.1,5-5.1c1.6,0,3.1,0.8,3.9,2.1h3.3c-0.3-0.9-0.9-1.7-1.6-2.4c0.2-0.1,0.4-0.2,0.5-0.3c1.2-0.8,1.4-1.9,1.4-3.3V8.9
			V8.1V6.8h-0.7c0.2-0.8-0.1-2.1-0.9-4.1c0.1,1.3-0.4,2.7-0.8,3.7c-1-0.5-3-0.9-5.3-0.9c-2,0-3.8,0.3-4.9,0.7C5,5.3,4.6,3.9,4.7,2.7
			C3.8,4.6,3.6,6,3.8,6.8H3.2v1.4v0.8v1.8c0,1.7,0.6,2.9,1.9,3.5c-1.4,1.4-2.3,3.3-2.3,5.4c0,4.3,3.6,7.6,7.9,7.6
			c4.1,0,7.8-3.3,7.8-7.5v-0.3H8.8z M10.5,11.6h0.2c0,0.1,0,0.2,0.1,0.3c-0.1,0-0.1,0-0.2,0c0,0-0.1,0-0.1,0
			C10.4,11.9,10.5,11.8,10.5,11.6z"/>
	</g>
	<g>
		<path fill="#F0E924" d="M8.9,10.8c0,1.1-0.9,2.1-2.1,2.1s-2.1-0.9-2.1-2.1s0.9-2.1,2.1-2.1C8,8.7,8.9,9.6,8.9,10.8z"/>
		<circle fill="#F0E924" cx="14.3" cy="10.8" r="2.1"/>
		<polyline fill="#F0E924" points="12.6,10.9 10.6,13.7 8.5,10.9 		"/>
	</g>
	<g>
		<path fill="#010101" d="M7.5,10.8c0,0.4-0.3,0.7-0.7,0.7s-0.7-0.3-0.7-0.7s0.3-0.7,0.7-0.7C7.2,10.1,7.5,10.4,7.5,10.8z"/>
		<path fill="#010101" d="M15,10.8c0,0.4-0.3,0.7-0.7,0.7s-0.7-0.3-0.7-0.7s0.3-0.7,0.7-0.7C14.7,10.1,15,10.4,15,10.8z"/>
	</g>
	<path opacity="0.2" fill="#38363A" enable-background="new    " d="M15.8,12.2c-0.4,0.4-0.9,0.6-1.5,0.6c-1.1,0-2.1-0.9-2.1-2.1
		c0-0.6,0.3-1.1,0.6-1.5L15.8,12.2z"/>
</g>
</svg>
