<?xml version="1.0" encoding="utf-8"?>
<!-- Generator: Adobe Illustrator 18.0.0, SVG Export Plug-In . SVG Version: 6.00 Build 0)  -->
<!DOCTYPE svg PUBLIC "-//W3C//DTD SVG 1.1//EN" "http://www.w3.org/Graphics/SVG/1.1/DTD/svg11.dtd">
<svg version="1.1" id="Capa_1" xmlns="http://www.w3.org/2000/svg" xmlns:xlink="http://www.w3.org/1999/xlink" x="0px" y="0px"
	 viewBox="0 0 329.4 323.3" enable-background="new 0 0 329.4 323.3" xml:space="preserve">
<g>
	<g>
		<path fill="#FFFFFF" d="M101.8,13.1h5.7c-0.8,1.5-2.3,2.5-4,2.5c-2,0-3.7-1-4.4-2.9c-0.2-0.6-0.4-1.2-0.4-1.8c0-2.6,2-4.8,4.7-4.8
			c1.4,0,2.9,0.7,3.7,1.9h3c-0.9-2.6-3.9-4.3-6.6-4.3c-3.9,0-7.3,3.1-7.3,7.1c0,4,3.4,7.1,7.3,7.1c3.8,0,7.2-3,7.2-6.9v-0.3h-8.9
			V13.1z"/>
		<path fill="#FFFFFF" d="M117.1,7.1c-3.1,0-5.4,2.4-5.4,5.5c0,3,2.3,5.4,5.4,5.4c2.2,0,4.3-1.5,4.9-3.6h-2.6
			c-0.5,0.9-1.4,1.3-2.4,1.3c-1,0-1.9-0.5-2.5-1.4c-0.1-0.2-0.3-0.5-0.3-0.7h7.9c0.1-0.4,0.1-0.8,0.1-1.2
			C122.4,9.4,120.1,7.1,117.1,7.1z M114.2,11.7c0.4-1.5,1.4-2.3,2.9-2.3c1.5,0,2.5,0.9,2.8,2.3H114.2z"/>
		<path fill="#FFFFFF" d="M128.8,7.1c-3,0-5.5,2.5-5.5,5.5c0,3,2.5,5.4,5.5,5.4c3.1,0,5.4-2.4,5.4-5.5
			C134.3,9.5,131.9,7.1,128.8,7.1z M128.8,15.7c-1.8,0-3-1.5-3-3.2c0-1.7,1.3-3.2,3-3.2c1.7,0,3,1.6,3,3.2
			C131.8,14.2,130.6,15.7,128.8,15.7z"/>
		<path fill="#FFFFFF" d="M142.5,10.2c1-0.6,1.5-1.4,1.5-2.6c0-0.9-0.5-1.9-1.2-2.5c-1.1-1-2.5-1.1-3.9-1.1h-3v13.6h3.7
			c1.2,0,2.5-0.1,3.5-0.8c1.1-0.7,1.7-1.9,1.7-3.2C144.9,11.9,144.1,10.8,142.5,10.2z M138.5,6.4h1.1c1,0,2,0.3,2,1.5
			c0,1.2-1.1,1.5-2,1.5h-1V6.4z M139.8,15.3h-1.3v-3.6h1.3c1.2,0,2.5,0.4,2.5,1.8C142.4,15,141,15.3,139.8,15.3z"/>
		<path fill="#FFFFFF" d="M154.5,8.7L154.5,8.7c-0.1-0.1-0.3-0.3-0.4-0.4c-0.8-0.8-1.9-1.2-3-1.2c-3,0-5.1,2.5-5.1,5.4
			c0,2.9,1.9,5.5,5,5.5c1.3,0,2.8-0.6,3.6-1.6v1.3h2.3V7.4h-2.3V8.7z M151.4,15.7c-1.8,0-3-1.4-3-3.2c0-1.8,1.2-3.3,3-3.3
			c1.8,0,3,1.4,3,3.2C154.4,14.3,153.2,15.7,151.4,15.7z"/>
		<path fill="#FFFFFF" d="M161,8.3L161,8.3l0-0.9h-2.2v10.2h2.5v-5.8c0-1.5,0.6-2.4,2.2-2.5V7.1C162.2,7.1,161.7,7.3,161,8.3z"/>
		<circle fill="#FFFFFF" cx="128.8" cy="12.5" r="1.3"/>
	</g>
	<g opacity="0.2">
		<path fill="#38363A" d="M102.3,12.6h5.7c-0.8,1.5-2.3,2.5-4,2.5c-2,0-3.7-1-4.4-2.9c-0.2-0.6-0.4-1.2-0.4-1.8c0-2.6,2-4.8,4.7-4.8
			c1.4,0,2.9,0.7,3.7,1.9h3c-0.9-2.6-3.9-4.3-6.6-4.3c-3.9,0-7.3,3.1-7.3,7.1c0,4,3.4,7.1,7.3,7.1c3.8,0,7.2-3,7.2-6.9v-0.3h-8.9
			V12.6z"/>
		<path fill="#38363A" d="M117.6,6.6c-3.1,0-5.4,2.4-5.4,5.5c0,3,2.3,5.4,5.4,5.4c2.2,0,4.3-1.5,4.9-3.6h-2.6
			c-0.5,0.9-1.4,1.3-2.4,1.3c-1,0-1.9-0.5-2.5-1.4c-0.1-0.2-0.3-0.5-0.3-0.7h7.9c0.1-0.4,0.1-0.8,0.1-1.2
			C122.8,9,120.5,6.6,117.6,6.6z M114.7,11.2c0.4-1.5,1.4-2.3,2.9-2.3c1.5,0,2.5,0.9,2.8,2.3H114.7z"/>
		<path fill="#38363A" d="M129.3,6.6c-3,0-5.5,2.5-5.5,5.5c0,3,2.5,5.4,5.5,5.4c3.1,0,5.4-2.4,5.4-5.5C134.7,9,132.3,6.6,129.3,6.6z
			 M129.3,15.3c-1.8,0-3-1.5-3-3.2c0-1.7,1.3-3.2,3-3.2c1.7,0,3,1.6,3,3.2C132.3,13.8,131.1,15.3,129.3,15.3z"/>
		<path fill="#38363A" d="M143,9.7c1-0.6,1.5-1.4,1.5-2.6c0-0.9-0.5-1.9-1.2-2.5c-1.1-1-2.5-1.1-3.9-1.1h-3v13.6h3.7
			c1.2,0,2.5-0.1,3.5-0.8c1.1-0.7,1.7-1.9,1.7-3.2C145.4,11.4,144.6,10.3,143,9.7z M139,5.9h1.1c1,0,2,0.3,2,1.5
			c0,1.2-1.1,1.5-2,1.5h-1V5.9z M140.3,14.8H139v-3.6h1.3c1.2,0,2.5,0.4,2.5,1.8C142.8,14.5,141.5,14.8,140.3,14.8z"/>
		<path fill="#38363A" d="M155,8.2L155,8.2c-0.1-0.1-0.3-0.3-0.4-0.4c-0.8-0.8-1.9-1.2-3-1.2c-3,0-5.1,2.5-5.1,5.4
			c0,2.9,1.9,5.5,5,5.5c1.3,0,2.8-0.6,3.6-1.6v1.3h2.3V6.9H155V8.2z M151.9,15.3c-1.8,0-3-1.4-3-3.2c0-1.8,1.2-3.3,3-3.3
			c1.8,0,3,1.4,3,3.2C154.9,13.8,153.7,15.3,151.9,15.3z"/>
		<path fill="#38363A" d="M161.5,7.8L161.5,7.8l0-0.9h-2.2v10.2h2.5v-5.8c0-1.5,0.6-2.4,2.2-2.5V6.6C162.7,6.6,162.2,6.9,161.5,7.8z
			"/>
		<circle fill="#38363A" cx="129.3" cy="12" r="1.3"/>
	</g>
</g>
<g>
	
		<polygon fill="#FFFFFF" stroke="#FFFFFF" stroke-width="1.3727" stroke-linecap="round" stroke-linejoin="round" stroke-miterlimit="10" points="
		32.6,7.3 8.7,7.3 13.5,12.1 12.7,12.9 6.6,6.8 12.7,0.7 13.5,1.5 8.8,6.2 33.8,6.2 33.8,19.3 32.6,19.3 	"/>
	
		<rect x="20.2" y="18.1" fill="#FFFFFF" stroke="#FFFFFF" stroke-width="1.0821" stroke-linecap="round" stroke-linejoin="round" stroke-miterlimit="10" width="13" height="1.1"/>
</g>
<g>
	
		<rect x="56.9" y="3.8" fill="#FFFFFF" stroke="#FFFFFF" stroke-width="1.3727" stroke-linecap="round" stroke-linejoin="round" stroke-miterlimit="10" width="21" height="1.1"/>
	
		<rect x="56.9" y="10.8" fill="#FFFFFF" stroke="#FFFFFF" stroke-width="1.3727" stroke-linecap="round" stroke-linejoin="round" stroke-miterlimit="10" width="21" height="1.1"/>
	
		<rect x="56.9" y="17.8" fill="#FFFFFF" stroke="#FFFFFF" stroke-width="1.3727" stroke-linecap="round" stroke-linejoin="round" stroke-miterlimit="10" width="21" height="1.1"/>
</g>
<path fill="#67C296" d="M175.1,41.8l-0.1-0.1l-0.6-0.3l-0.6,0.3v0l-6.2,3.1l-6.1-3l-0.2-0.1l-0.6-0.3l-0.6,0.3l0,0l-6.8,3.4V69
	l7.4-3.7l6.1,3.1l0.1,0.1l0.6,0.3l0.6-0.3l0.3-0.1l6-3l7.4,3.7V45.2L175.1,41.8z M160.2,64.3l-5.7,2.8V45.9l5.7-2.8V64.3z M167,67.2
	l-5.7-2.8V43l5.7,2.8V67.2z M173.8,64.3l-5.7,2.8V45.9l5.7-2.8V64.3z M180.6,67.2l-5.7-2.8V43l5.7,2.8V67.2z"/>
<g>
	<path fill="#35C6F4" d="M46.5,41.8V69h10.8h10.8V41.8H46.5z M58.1,67.8l-10.4,0V42.9h19.3v24.9l-9,0"/>
	<rect x="51.6" y="48.6" fill="#35C6F4" width="11.3" height="1.1"/>
	<rect x="51.6" y="53.1" fill="#35C6F4" width="11.3" height="1.1"/>
	<rect x="51.6" y="57.5" fill="#35C6F4" width="11.3" height="1.1"/>
	<rect x="51.6" y="62" fill="#35C6F4" width="11.3" height="1.1"/>
</g>
<g>
	<path fill="#F0E924" d="M12.9,43.6c-0.8,0-1.6,0.2-2.1,0.7c-0.2,0.1-0.2,0.3-0.1,0.4l0.3,0.6c0.1,0.1,0.2,0.3,0.5,0.2
		c0.2-0.1,0.7-0.4,1.4-0.4c0.8,0,1.4,0.4,1.4,1.2c0,1.5-2,2.3-2,4.6v0.2c0,0.3,0.1,0.5,0.4,0.5h0.7c0.2,0,0.3-0.1,0.3-0.5v-0.2
		c0-1.8,2.2-2.7,2.2-4.7C15.6,44.6,14.5,43.6,12.9,43.6z"/>
	<path fill="#F0E924" d="M12.8,53c-0.6,0-1.1,0.5-1.1,1c0,0.6,0.5,1.1,1.1,1.1c0.6,0,1-0.5,1-1.1C13.8,53.4,13.3,53,12.8,53z"/>
	<path fill="#F0E924" d="M1.7,31.9l3.6,3c0.1,0.1,0.3,0.1,0.4,0c0.1-0.1,0.2-0.3,0.1-0.5l-2.8-3.9c0,0,0,0,0,0
		c-0.2-0.2-0.4-0.4-0.7-0.4c-0.5,0-0.9,0.4-0.9,1C1.3,31.4,1.4,31.6,1.7,31.9C1.6,31.8,1.6,31.9,1.7,31.9z"/>
	<path fill="#F0E924" d="M12.3,32.6c0,0.1,0.1,0.2,0.3,0.2c0.2,0,0.3-0.1,0.4-0.3l0.6-4.8c0,0,0,0,0-0.1c0-0.3-0.1-0.6-0.3-0.7
		c-0.4-0.3-1-0.3-1.3,0.1c-0.2,0.2-0.3,0.5-0.3,0.7c0,0,0,0.1,0,0.1L12.3,32.6z"/>
	<path fill="#F0E924" d="M19.7,34.7l3.9-2.8c0,0,0,0,0,0c0.2-0.2,0.4-0.4,0.4-0.7c0-0.5-0.4-0.9-1-0.9c-0.3,0-0.5,0.1-0.7,0.3
		c0,0-0.1,0-0.1,0.1l-3,3.6c-0.1,0.1-0.1,0.3,0,0.4C19.3,34.8,19.5,34.8,19.7,34.7z"/>
	<path fill="#F0E924" d="M12.7,36.1c-6.3,0-11.3,5.1-11.3,11.3c0,3.7,1.8,7,4.5,9l0,0c0.1,0,0.1,0.1,0.2,0.1c0,0,0,0,0,0
		c0.9,0.7,2.1,2.3,2.1,4.4v8h9.1v-8c0-2.3,1.3-3.9,2.3-4.5l0,0c2.8-2.1,4.5-5.4,4.5-9.1C24,41.1,18.9,36.1,12.7,36.1z M16.1,67.9
		H9.3v-3.4h6.8V67.9z M18.8,55.6C18.8,55.6,18.7,55.6,18.8,55.6c-1.3,0.9-2.7,2.9-2.7,5.5v2.3h-2.8v-3.6h-1.1v3.6H9.3V61
		c0-2.4-1.4-4.4-2.6-5.3c0,0,0,0,0,0c0,0-0.1-0.1-0.1-0.1c0,0,0,0-0.1,0c-2.6-2-4-4.9-4-8.1c0-5.6,4.6-10.2,10.2-10.2
		s10.2,4.6,10.2,10.2C22.9,50.6,21.4,53.6,18.8,55.6z"/>
</g>
<g>
	<polygon fill="#DB9FC8" points="135.4,46.9 135.4,42.3 134.4,42.3 134.4,46.9 129.8,46.9 129.8,47.9 134.4,47.9 134.4,52.5 
		135.4,52.5 135.4,47.9 140,47.9 140,46.9 	"/>
	<path fill="#DB9FC8" d="M111.5,69l-3.9-9H94.2l-3.9,9h-1.1l11-25.7h1.4l11,25.7H111.5z M100.9,44.2l-6.3,14.8h12.5L100.9,44.2z"/>
	<path fill="#DB9FC8" d="M120.5,59.3l-1,0l6.9,9.7H125l-7.5-10.6h1.6c2.4,0,4-0.2,5.7-1.6c1.6-1.7,2.2-3.5,2.2-5.5
		c0-2.2-1.1-4.7-3.1-6c-1.6-1-3.4-1-6.5-1h-4.8V69h-1V43.3h5.9c4,0,5.6,0.4,6.8,1.1c2.1,1.1,3.6,3.9,3.7,6.8c0,0.1,0,0.1,0,0.2
		C128,54.6,126,59.1,120.5,59.3z"/>
</g>
<g>
	<path fill="#F0E924" d="M20.7,86H5.6C4.7,86,4,86.7,4,87.6v27.6c0,0.8,0.7,1.5,1.5,1.5h15.1c0.8,0,1.5-0.7,1.5-1.5V87.6
		C22.2,86.7,21.5,86,20.7,86z M21.1,115.1c0,0.2-0.2,0.4-0.4,0.4H5.6c-0.2,0-0.4-0.2-0.4-0.4v-5.3h15.9V115.1z M21.1,108.7H5.2V90.6
		h15.9V108.7z M21.1,89.5H5.2v-1.9c0-0.2,0.2-0.4,0.4-0.4h15.1c0.2,0,0.4,0.2,0.4,0.4V89.5z"/>
	<rect x="11.4" y="112.1" fill="#F0E924" width="3.4" height="1.1"/>
</g>
<g>
	<polygon fill="#35C6F4" points="55.6,94.1 59.3,90.4 59.3,97.1 44.6,111 44.6,116.7 45.7,116.7 45.7,111.5 60.4,97.6 60.4,90.4 
		64.2,94.1 65,93.3 59.9,88.3 54.8,93.3 	"/>
	<polygon fill="#35C6F4" points="59.3,111.5 59.3,116.7 60.4,116.7 60.4,111 54.6,105.5 53.8,106.3 	"/>
	<polygon fill="#35C6F4" points="45.7,97.1 45.7,90.4 49.4,94.1 50.2,93.3 45.1,88.3 40,93.3 40.8,94.1 44.6,90.4 44.6,97.6 
		50.5,103.1 51.2,102.3 	"/>
</g>
<path fill="#DB9FC8" d="M95.5,98.8l-3.6-11.1l-3.6,11.1H76.6l9.5,6.8l-3.6,11.1l9.5-6.9l9.5,6.9l-3.6-11.1l9.5-6.8H95.5z M96.6,106
	l2.5,7.7l-6.6-4.8l-0.7-0.5l-0.7,0.5l-6.6,4.8l2.5-7.7l0.3-0.8l-0.7-0.5l-6.6-4.7h8.2h0.8l0.3-0.8l2.5-7.7l2.5,7.7l0.3,0.8h0.8h8.2
	l-6.6,4.7l-0.7,0.5L96.6,106z"/>
<g>
	<g>
		<path fill="#67C296" d="M131.3,87.6c-1.9,0-3.4,1.5-3.4,3.4c0,1.9,1.5,3.4,3.4,3.4c1.9,0,3.4-1.5,3.4-3.4
			C134.7,89.1,133.2,87.6,131.3,87.6z M131.3,93.3c-1.3,0-2.3-1-2.3-2.3c0-1.3,1-2.3,2.3-2.3c1.3,0,2.3,1,2.3,2.3
			C133.5,92.2,132.5,93.3,131.3,93.3z"/>
	</g>
	<path fill="#67C296" d="M142.6,91.1c0-6.3-5.1-11.3-11.3-11.3s-11.3,5.1-11.3,11.3c0,3.7,1.8,7,4.5,9l0,0c0.1,0,0.1,0.1,0.2,0.1
		c0,0,0,0,0,0c0.9,0.7,2.1,2.3,2.1,4.4v8h1.2c0,0.2-0.1,0.4-0.1,0.6c0,1.9,1.5,3.4,3.4,3.4c1.9,0,3.4-1.5,3.4-3.4
		c0-0.2,0-0.4-0.1-0.6h1.2v-8c0-2.3,1.3-3.9,2.3-4.5l0,0C140.8,98.1,142.6,94.8,142.6,91.1z M137.4,99.3
		C137.4,99.3,137.4,99.3,137.4,99.3c-1.3,0.9-2.7,2.9-2.7,5.5v1v1.3v1.1v3.4h-0.5h-1.4h-0.1c0.5,0.4,0.8,1,0.8,1.7
		c0,1.3-1,2.3-2.3,2.3c-1.3,0-2.3-1-2.3-2.3c0-0.7,0.3-1.3,0.8-1.7h0h-1.4h-0.5v-3.4V107v-1.3v-1c0-2.4-1.4-4.4-2.6-5.3c0,0,0,0,0,0
		c0,0-0.1-0.1-0.1-0.1c0,0,0,0-0.1,0c-2.6-2-4-4.9-4-8.1c0-5.6,4.6-10.2,10.2-10.2c5.6,0,10.2,4.6,10.2,10.2
		C141.5,94.4,140,97.3,137.4,99.3z"/>
</g>
<g>
	<circle fill="#DB9FC8" cx="28.4" cy="155.3" r="28.4"/>
	<path fill="#FFFFFF" d="M45.2,141.3h-0.1h-5.8l4.4-4.4l0,0l1.9-1.9v-0.1h-2l-0.4,0.4l-6,6h-7h-3.7h-8.2h-6.7h-0.1H9.6v0.1l0.1,0.1
		l8,8l4.2,4.2l3.6,3.6l0.5,0.5c0.4,0.4,1,0.7,1.5,0.9v15.5h-6v1.5h13.5v-1.5h-6v-15.5c0.6-0.1,1.1-0.4,1.6-0.9l4.1-4.1h0l1.1-1.1v0
		l4.9-4.9l4.5-4.5l1.9-1.9v-0.1H45.2z M29.6,156.8c-0.7,0.7-1.8,0.7-2.5,0l-14-14h22.6l-3.7,3.7c-0.4-0.1-0.8-0.2-1.3-0.2
		c-2.1,0-3.7,1.7-3.7,3.7c0,2.1,1.7,3.7,3.7,3.7c2.1,0,3.7-1.7,3.7-3.7c0-1.1-0.5-2-1.2-2.7l0.1-0.1h0l1.1-1.1l0,0l3.4-3.4h5.8
		L29.6,156.8z M33,150c0,1.2-1,2.2-2.2,2.2c-1.2,0-2.2-1-2.2-2.2c0-1.2,1-2.2,2.2-2.2C32,147.8,33,148.8,33,150z"/>
</g>
<g>
	<circle fill="#79CED7" cx="158.5" cy="155.3" r="28.4"/>
	<g>
		<path fill="#DB9FC8" d="M158.5,137.3c-9.9,0-18,8.1-18,18c0,9.9,8.1,18,18,18c9.9,0,18-8.1,18-18
			C176.5,145.4,168.4,137.3,158.5,137.3z M158.5,171.8c-9.1,0-16.5-7.4-16.5-16.5c0-9.1,7.4-16.5,16.5-16.5
			c9.1,0,16.5,7.4,16.5,16.5C175,164.4,167.6,171.8,158.5,171.8z"/>
		<polygon fill="#DB9FC8" points="158.5,156.8 149.5,156.8 149.5,158.3 160,158.3 160,143.4 158.5,143.4 		"/>
	</g>
</g>
<g>
	<circle fill="#F0E924" cx="93.4" cy="155.3" r="28.4"/>
	<path fill="#DB9FC8" d="M106,150.4L106,150.4L106,150.4l6.3-6.2c0.7-0.7,1.1-1.6,1.1-2.6c0-1-0.4-1.9-1.1-2.6
		c-1.5-1.5-3.8-1.5-5.3,0l-7.4,7.4l0,0l-7.5,7.5l-7.4-7.4l0.1-0.1l0,0l2.2-2.2l-7-7l-1.2,1.2l6,6l-1,1l-4.9-4.9l-1.2,1.2l4.9,4.9
		l-0.9,0.9l-6-6l-1.2,1.2l7,7l2.1-2.1l0,0l0,0l7.4,7.4l-5.5,5.5l-3.2-3.2l-1.1,1.1l1.1,1.1l-7.9,7.9c-0.7,0.7-1.1,1.6-1.1,2.6
		c0,1,0.4,1.9,1.1,2.6c1.5,1.5,3.8,1.5,5.3,0l7.9-7.9l1.1,1.1l1.1-1.1l-3.2-3.2l5.5-5.5l5.5,5.5l-3.2,3.2l1.1,1.1l1.1-1.1l7.9,7.9
		c0.7,0.7,1.6,1.1,2.6,1.1c1,0,1.9-0.4,2.6-1.1c1.5-1.5,1.5-3.8,0-5.3l-7.9-7.9l1.1-1.1l-1.1-1.1l-3.2,3.2l-5.5-5.5l4.4-4.4H106z
		 M78.8,171.4c-0.9,0.9-2.3,0.9-3.2,0c-0.4-0.4-0.7-1-0.7-1.6c0-0.6,0.2-1.2,0.7-1.6l7.9-7.9l3.2,3.2L78.8,171.4z M100.9,160.3
		l7.9,7.9c0.9,0.9,0.9,2.3,0,3.2c-0.4,0.4-1,0.7-1.6,0.7c-0.6,0-1.2-0.2-1.6-0.7l-7.9-7.9L100.9,160.3z M108.1,140
		c0.9-0.9,2.3-0.9,3.2,0c0.4,0.4,0.7,1,0.7,1.6c0,0.6-0.2,1.2-0.7,1.6l-5.4,5.4h-6.3l1-1l0,0l0.2-0.2L108.1,140z"/>
</g>
<g>
	<circle fill="#67C296" cx="168.3" cy="95.6" r="1.7"/>
	<polygon fill="#67C296" points="169.4,99.6 169.4,99 169.4,98.5 166,98.5 166,99.6 167.2,99.6 167.2,109.2 166,109.2 166,110.4 
		170.6,110.4 170.6,109.2 169.4,109.2 	"/>
	<path fill="#67C296" d="M168.2,88.3c-7.8,0-14.2,6.3-14.2,14.2c0,7.8,6.3,14.2,14.2,14.2c7.8,0,14.2-6.3,14.2-14.2
		C182.4,94.6,176,88.3,168.2,88.3z M168.2,115.5c-7.2,0-13-5.9-13-13c0-7.2,5.9-13,13-13c7.2,0,13,5.9,13,13
		C181.3,109.7,175.4,115.5,168.2,115.5z"/>
</g>
</svg>
