<?xml version="1.0" encoding="utf-8"?>
<!-- Generator: Adobe Illustrator 18.0.0, SVG Export Plug-In . SVG Version: 6.00 Build 0)  -->
<!DOCTYPE svg PUBLIC "-//W3C//DTD SVG 1.1//EN" "http://www.w3.org/Graphics/SVG/1.1/DTD/svg11.dtd">
<svg version="1.1" id="Capa_1" xmlns="http://www.w3.org/2000/svg" xmlns:xlink="http://www.w3.org/1999/xlink" x="0px" y="0px"
	 viewBox="0 0 75 75" enable-background="new 0 0 75 75" xml:space="preserve">
<g>
	<path fill="#DCA0C8" d="M46,28.7L37.3,0l-8.8,28.7H0l23.1,17.6L14.4,75l23.1-17.8L60.6,75l-8.8-28.7L75,28.7H46z M48.7,47.3
		l6.1,19.9L38.7,54.8L37,53.5l-1.7,1.3L19.2,67.2l6.1-19.9l0.7-2.1L24.4,44L8.3,31.8h20h1.9l0.7-2.1L37,9.8l6.1,19.9l0.7,2.1h1.9h20
		L49.7,44L48,45.3L48.7,47.3z"/>
</g>
</svg>
