<?xml version="1.0" encoding="utf-8"?>
<!-- Generator: Adobe Illustrator 18.0.0, SVG Export Plug-In . SVG Version: 6.00 Build 0)  -->
<!DOCTYPE svg PUBLIC "-//W3C//DTD SVG 1.1//EN" "http://www.w3.org/Graphics/SVG/1.1/DTD/svg11.dtd">
<svg version="1.1" id="Capa_1" xmlns="http://www.w3.org/2000/svg" xmlns:xlink="http://www.w3.org/1999/xlink" x="0px" y="0px"
	 viewBox="0 1190.6 100 100" enable-background="new 0 1190.6 100 100" xml:space="preserve">
<g>
	<polygon fill="#3BC6F3" points="56.9,1222 65,1213.9 65,1228.7 32.6,1259.3 32.6,1271.9 35,1271.9 35,1260.4 67.4,1229.8 
		67.4,1213.9 75.8,1222 77.6,1220.3 66.3,1209.2 55,1220.3 	"/>
	<polygon fill="#3BC6F3" points="65,1260.4 65,1271.9 67.4,1271.9 67.4,1259.3 54.6,1247.2 52.9,1248.9 	"/>
	<polygon fill="#3BC6F3" points="35,1228.7 35,1213.9 43.1,1222 45,1220.3 33.7,1209.2 22.4,1220.3 24.2,1222 32.6,1213.9 
		32.6,1229.8 45.6,1241.8 47.1,1240.1 	"/>
</g>
</svg>
