<?xml version="1.0" encoding="utf-8"?>
<!-- Generator: Adobe Illustrator 18.0.0, SVG Export Plug-In . SVG Version: 6.00 Build 0)  -->
<!DOCTYPE svg PUBLIC "-//W3C//DTD SVG 1.1//EN" "http://www.w3.org/Graphics/SVG/1.1/DTD/svg11.dtd">
<svg version="1.1" id="Capa_1" xmlns="http://www.w3.org/2000/svg" xmlns:xlink="http://www.w3.org/1999/xlink" x="0px" y="0px"
	 viewBox="0 1190.6 100 100" enable-background="new 0 1190.6 100 100" xml:space="preserve">
<g>
	<circle fill="#67C296" cx="50" cy="1223.7" r="4.2"/>
	<polygon fill="#67C296" points="52.8,1233.4 52.8,1232.1 52.8,1230.7 44.4,1230.7 44.4,1233.4 47.2,1233.4 47.2,1257.1 
		44.4,1257.1 44.4,1259.9 55.6,1259.9 55.6,1257.1 52.8,1257.1 	"/>
	<path fill="#67C296" d="M50,1205.7c-19.2,0-34.8,15.6-34.8,34.8s15.6,34.8,34.8,34.8s34.8-15.6,34.8-34.8S69.2,1205.7,50,1205.7z
		 M50,1272.6c-17.7,0-32-14.3-32-32s14.3-32,32-32s32,14.3,32,32S67.7,1272.6,50,1272.6z"/>
</g>
</svg>
