<?xml version="1.0" encoding="utf-8"?>
<!-- Generator: Adobe Illustrator 18.0.0, SVG Export Plug-In . SVG Version: 6.00 Build 0)  -->
<!DOCTYPE svg PUBLIC "-//W3C//DTD SVG 1.1//EN" "http://www.w3.org/Graphics/SVG/1.1/DTD/svg11.dtd">
<svg version="1.1" id="Capa_1" xmlns="http://www.w3.org/2000/svg" xmlns:xlink="http://www.w3.org/1999/xlink" x="0px" y="0px"
	 viewBox="0 1190.6 100 100" enable-background="new 0 1190.6 100 100" xml:space="preserve">
<g>
	<path fill="#EFE923" d="M65.7,1208.9H34.7c-2,0-3.4,1.4-3.4,3.4v57c0,1.5,1.4,3,3.1,3h31.2c1.5,0,3.1-1.4,3.1-3.1v-56.8
		C68.8,1210.3,67.4,1208.9,65.7,1208.9z M66.6,1269c0,0.4-0.4,0.8-0.8,0.8H34.7c-0.4,0-0.8-0.4-0.8-0.8v-11h32.8
		C66.6,1258,66.6,1269,66.6,1269z M66.6,1255.7H33.8v-37.3h32.8C66.6,1218.5,66.6,1255.7,66.6,1255.7z M66.6,1216.1H33.8v-3.8
		c0-0.4,0.4-0.8,0.8-0.8h31.2c0.4,0,0.8,0.4,0.8,0.8L66.6,1216.1L66.6,1216.1z"/>
	<rect x="46.5" y="1262.8" fill="#EFE923" width="7" height="2.3"/>
</g>
</svg>
