<?xml version="1.0" encoding="utf-8"?>
<!-- Generator: Adobe Illustrator 18.0.0, SVG Export Plug-In . SVG Version: 6.00 Build 0)  -->
<!DOCTYPE svg PUBLIC "-//W3C//DTD SVG 1.1//EN" "http://www.w3.org/Graphics/SVG/1.1/DTD/svg11.dtd">
<svg version="1.1" id="Capa_1" xmlns="http://www.w3.org/2000/svg" xmlns:xlink="http://www.w3.org/1999/xlink" x="0px" y="0px"
	 viewBox="0 0 40 74.4" enable-background="new 0 0 40 74.4" xml:space="preserve">
<g>
	<path fill="#F0E924" d="M20.5,29.7c-1.3,0-2.7,0.4-3.8,1.2c-0.3,0.2-0.4,0.4-0.2,0.7l0.5,1.1c0.1,0.2,0.4,0.5,0.8,0.3
		c0.3-0.1,1.2-0.8,2.4-0.8c1.5,0,2.4,0.6,2.4,2.1c0,2.6-3.6,4.1-3.6,8.2v0.4c0,0.6,0.2,0.8,0.7,0.8h1.2c0.4,0,0.6-0.2,0.6-0.8v-0.4
		c0-3.1,3.9-4.7,3.9-8.3C25.3,31.4,23.3,29.7,20.5,29.7z"/>
	<path fill="#F0E924" d="M20.2,46.2c-1,0-1.9,0.8-1.9,1.8c0,1,0.8,1.9,1.9,1.9c1,0,1.8-0.8,1.8-1.9C22,47,21.2,46.2,20.2,46.2z"/>
	<path fill="#F0E924" d="M0.7,9L7,14.4c0.2,0.2,0.5,0.2,0.6,0c0.2-0.2,0.3-0.6,0.1-0.8L2.9,6.6c0,0,0-0.1-0.1-0.1
		C2.5,6.1,2.1,5.9,1.6,5.9C0.7,5.9,0,6.7,0,7.6c0,0.5,0.2,1,0.5,1.3C0.6,8.9,0.6,9,0.7,9z"/>
	<path fill="#F0E924" d="M19.4,10.3c0,0.2,0.2,0.4,0.5,0.4c0.3,0,0.6-0.2,0.6-0.5l1-8.4c0,0,0-0.1,0-0.1c0-0.5-0.1-1-0.5-1.3
		c-0.6-0.6-1.7-0.5-2.3,0.2c-0.3,0.4-0.5,0.8-0.5,1.3c0,0.1,0,0.1,0,0.2L19.4,10.3z"/>
	<path fill="#F0E924" d="M32.4,14l6.9-4.9c0,0,0.1,0,0.1-0.1C39.8,8.8,40,8.3,40,7.8c0-0.9-0.8-1.6-1.7-1.6c-0.5,0-1,0.2-1.3,0.5
		c-0.1,0-0.1,0.1-0.2,0.1l-5.3,6.4c-0.2,0.2-0.2,0.5,0,0.6C31.8,14.2,32.1,14.2,32.4,14z"/>
	<path fill="#F0E924" d="M20,16.4c-11,0-20,9-20,20c0,6.5,3.1,12.3,7.9,15.9l0,0c0.1,0.1,0.2,0.1,0.3,0.2c0,0,0,0,0,0
		c1.5,1.2,3.8,4.1,3.8,7.8v14h16v-14c0-4,2.3-6.9,4-8l0,0c4.9-3.6,8-9.4,8-16C40,25.4,31.1,16.4,20,16.4z M26,72.4H14v-6h12V72.4z
		 M30.8,50.8C30.8,50.8,30.8,50.8,30.8,50.8c-2.3,1.6-4.8,5-4.8,9.6v4h-5v-6.3h-2v6.3h-5v-4c0-4.3-2.4-7.8-4.5-9.4c0,0,0,0-0.1,0
		c-0.1-0.1-0.1-0.1-0.2-0.1c0,0-0.1-0.1-0.1-0.1C4.6,47.3,2,42.1,2,36.4c0-9.9,8.1-18,18-18s18,8.1,18,18
		C38,42.1,35.4,47.3,30.8,50.8z"/>
</g>
</svg>
