<?xml version="1.0" encoding="utf-8"?>
<!-- Generator: Adobe Illustrator 18.0.0, SVG Export Plug-In . SVG Version: 6.00 Build 0)  -->
<!DOCTYPE svg PUBLIC "-//W3C//DTD SVG 1.1//EN" "http://www.w3.org/Graphics/SVG/1.1/DTD/svg11.dtd">
<svg version="1.1" id="Capa_1" xmlns="http://www.w3.org/2000/svg" xmlns:xlink="http://www.w3.org/1999/xlink" x="0px" y="0px"
	 viewBox="0 0 50 50" enable-background="new 0 0 50 50" xml:space="preserve">
<g>
	<circle fill="#67C296" cx="25.1" cy="12.9" r="3"/>
	<polygon fill="#67C296" points="27.2,19.9 27.2,18.9 27.2,17.9 21.2,17.9 21.2,19.9 23.2,19.9 23.2,36.9 21.2,36.9 21.2,38.9 
		29.2,38.9 29.2,36.9 27.2,36.9 	"/>
	<path fill="#67C296" d="M25,0C11.2,0,0,11.2,0,25c0,13.8,11.2,25,25,25c13.8,0,25-11.2,25-25C50,11.2,38.8,0,25,0z M25,48
		C12.3,48,2,37.7,2,25C2,12.3,12.3,2,25,2c12.7,0,23,10.3,23,23C48,37.7,37.7,48,25,48z"/>
</g>
</svg>
