<?xml version="1.0" encoding="utf-8"?>
<!-- Generator: Adobe Illustrator 18.0.0, SVG Export Plug-In . SVG Version: 6.00 Build 0)  -->
<!DOCTYPE svg PUBLIC "-//W3C//DTD SVG 1.1//EN" "http://www.w3.org/Graphics/SVG/1.1/DTD/svg11.dtd">
<svg version="1.1" id="Capa_1" xmlns="http://www.w3.org/2000/svg" xmlns:xlink="http://www.w3.org/1999/xlink" x="0px" y="0px"
	 viewBox="0 1190.6 100 100" enable-background="new 0 1190.6 100 100" xml:space="preserve">
<g>
	<path fill="#DCA0C8" d="M58.4,1228.8l-8.7-28.6l-8.8,28.6H12.7l23,17.5l-8.7,28.6l23-17.7l23,17.7l-8.9-28.5l23.1-17.5L58.4,1228.8
		L58.4,1228.8z M61.2,1247.4l6,19.8l-16-12.3l-1.7-1.3l-1.7,1.3l-16,12.3l6-19.8l0.7-2.1l-1.6-1.1l-16-12.1h19.8h1.9l0.7-2.1l6-19.8
		l6,19.8l0.7,2.1h1.9H78l-15.8,12l-1.7,1.3L61.2,1247.4z"/>
</g>
</svg>
