<?xml version="1.0" encoding="utf-8"?>
<!-- Generator: Adobe Illustrator 16.0.0, SVG Export Plug-In . SVG Version: 6.00 Build 0)  -->
<!DOCTYPE svg PUBLIC "-//W3C//DTD SVG 1.1//EN" "http://www.w3.org/Graphics/SVG/1.1/DTD/svg11.dtd">
<svg version="1.1" id="Layer_1" xmlns="http://www.w3.org/2000/svg" xmlns:xlink="http://www.w3.org/1999/xlink" x="0px" y="0px"
	 width="94.009px" height="112.199px" viewBox="0 0 94.009 112.199" enable-background="new 0 0 94.009 112.199"
	 xml:space="preserve">
<g>
	<g>
		<text transform="matrix(1 0 0 1 9.9907 88.9834)"><tspan x="0" y="0" fill="#FFFFFF" font-family="'Roboto-Light'" font-size="15.782">Realidad</tspan><tspan x="-10.033" y="18.938" fill="#FFFFFF" font-family="'Roboto-Light'" font-size="15.782">Aumentada</tspan></text>
	</g>
	<g>
		<polygon fill="#BF91BC" points="85.927,8.083 85.927,0 84.13,0 84.13,8.083 76.048,8.083 76.048,9.879 84.13,9.879 84.13,17.962 
			85.927,17.962 85.927,9.879 94.009,9.879 94.009,8.083 		"/>
		<path fill="#BF91BC" d="M43.688,47.092l-6.801-15.81H13.172L6.37,47.092H4.409L23.835,1.746h2.389L45.65,47.092H43.688z
			 M24.999,3.461l-11.03,26.166h22.122L24.999,3.461z"/>
		<path fill="#BF91BC" d="M59.5,29.934l-1.778,0.062l12.195,17.096h-2.329L54.29,28.341h2.819c4.29,0,7.046-0.368,10.05-2.88
			c2.879-3.003,3.86-6.129,3.86-9.682c0-3.922-1.899-8.273-5.393-10.541C62.87,3.461,59.561,3.4,54.229,3.4h-8.518v43.691h-1.84
			V1.746h10.357c7.047,0,9.805,0.674,12.072,1.898c3.615,1.9,6.435,6.803,6.557,12.072c0,0.123,0,0.184,0,0.307
			C72.858,21.662,69.182,29.627,59.5,29.934z"/>
	</g>
</g>
</svg>
