<?xml version="1.0" encoding="utf-8"?>
<!-- Generator: Adobe Illustrator 18.0.0, SVG Export Plug-In . SVG Version: 6.00 Build 0)  -->
<!DOCTYPE svg PUBLIC "-//W3C//DTD SVG 1.1//EN" "http://www.w3.org/Graphics/SVG/1.1/DTD/svg11.dtd">
<svg version="1.1" id="Capa_1" xmlns="http://www.w3.org/2000/svg" xmlns:xlink="http://www.w3.org/1999/xlink" x="0px" y="0px"
	 viewBox="0 0 30 30" enable-background="new 0 0 30 30" xml:space="preserve">
<g>
	<circle fill="#DCA0C8" cx="15" cy="15" r="15"/>
	<path fill="#FFFFFF" d="M23.9,7.6L23.9,7.6h-3.1l2.3-2.3l0,0l1-1V4.2H23l-0.2,0.2l-3.2,3.2H16h-2H9.6H6.1H6.1H5v0.1l0.1,0.1
		l4.2,4.2l2.3,2.2l1.9,1.9l0.3,0.3c0.2,0.2,0.5,0.4,0.8,0.5V25h-3.2v0.8h7.1V25h-3.2v-8.2c0.3-0.1,0.6-0.2,0.8-0.5l2.2-2.2l0,0
		l0.6-0.6l0,0l2.6-2.6l2.4-2.4l1-1V7.5L23.9,7.6L23.9,7.6z M15.6,15.8c-0.4,0.4-1,0.4-1.3,0L6.9,8.4h11.9l-2,2
		c-0.2-0.1-0.4-0.1-0.7-0.1c-1.1,0-2,0.9-2,2c0,1.1,0.9,2,2,2c1.1,0,2-0.9,2-2c0-0.6-0.3-1.1-0.6-1.4l0.1-0.1l0,0l0.6-0.6l0,0
		L20,8.3H23L15.6,15.8z M17.4,12.2c0,0.6-0.5,1.2-1.2,1.2s-1.2-0.5-1.2-1.2c0-0.6,0.5-1.2,1.2-1.2S17.4,11.6,17.4,12.2z"/>
</g>
</svg>
