<?xml version="1.0" encoding="utf-8"?>
<!-- Generator: Adobe Illustrator 16.0.0, SVG Export Plug-In . SVG Version: 6.00 Build 0)  -->
<!DOCTYPE svg PUBLIC "-//W3C//DTD SVG 1.1//EN" "http://www.w3.org/Graphics/SVG/1.1/DTD/svg11.dtd">
<svg version="1.1" id="Layer_1" xmlns="http://www.w3.org/2000/svg" xmlns:xlink="http://www.w3.org/1999/xlink" x="0px" y="0px"
	 width="73.516px" height="16.048px" viewBox="0 0 73.516 16.048" enable-background="new 0 0 73.516 16.048" xml:space="preserve">
<g>
	<g>
		<path fill="#FFFFFF" d="M6.073,10.734h6.181c-0.868,1.626-2.494,2.712-4.337,2.712c-2.168,0-4.012-1.085-4.77-3.145
			C2.928,9.65,2.711,9,2.711,8.349c0-2.819,2.169-5.205,5.096-5.205c1.518,0,3.145,0.759,4.012,2.061h3.253
			c-0.976-2.819-4.229-4.663-7.157-4.663C3.687,0.542,0,3.903,0,8.24s3.687,7.698,7.915,7.698c4.12,0,7.808-3.252,7.808-7.481V8.132
			h-9.65V10.734L6.073,10.734z"/>
		<path fill="#FFFFFF" d="M22.662,4.229c-3.361,0-5.855,2.603-5.855,5.963c0,3.253,2.494,5.856,5.855,5.856
			c2.386,0,4.663-1.627,5.313-3.904h-2.819c-0.542,0.976-1.519,1.41-2.603,1.41c-1.084,0-2.061-0.542-2.711-1.518
			c-0.108-0.217-0.325-0.542-0.325-0.759h8.566c0.108-0.434,0.108-0.867,0.108-1.301C28.409,6.723,25.914,4.229,22.662,4.229z
			 M19.517,9.217c0.434-1.627,1.518-2.494,3.145-2.494c1.626,0,2.711,0.976,3.037,2.494H19.517z"/>
		<path fill="#FFFFFF" d="M35.349,4.229c-3.253,0-5.964,2.711-5.964,5.963c0,3.253,2.711,5.856,5.964,5.856
			c3.361,0,5.855-2.603,5.855-5.964C41.312,6.831,38.71,4.229,35.349,4.229z M35.349,13.554c-1.952,0-3.253-1.626-3.253-3.47
			s1.41-3.47,3.253-3.47c1.843,0,3.253,1.735,3.253,3.47C38.602,11.927,37.301,13.554,35.349,13.554z"/>
		<path fill="#FFFFFF" d="M50.203,7.59c1.084-0.65,1.626-1.518,1.626-2.819c0-0.976-0.542-2.06-1.301-2.71
			c-1.192-1.084-2.711-1.193-4.229-1.193h-3.253v14.748h4.012c1.301,0,2.711-0.109,3.795-0.867c1.192-0.76,1.843-2.061,1.843-3.47
			C52.806,9.434,51.938,8.24,50.203,7.59z M45.865,3.47h1.193c1.084,0,2.168,0.325,2.168,1.626s-1.193,1.627-2.168,1.627h-1.085
			V3.47H45.865z M47.276,13.12h-1.411V9.217h1.411c1.301,0,2.71,0.434,2.71,1.951C50.095,12.794,48.577,13.12,47.276,13.12z"/>
		<path fill="#FFFFFF" d="M63.215,5.963L63.215,5.963c-0.108-0.109-0.325-0.325-0.434-0.434c-0.868-0.867-2.061-1.301-3.253-1.301
			c-3.253,0-5.53,2.711-5.53,5.856c0,3.144,2.06,5.963,5.422,5.963c1.41,0,3.036-0.65,3.904-1.734v1.409h2.493V4.554h-2.493v1.41
			H63.215z M59.854,13.554c-1.952,0-3.253-1.518-3.253-3.47c0-1.952,1.301-3.578,3.253-3.578c1.952,0,3.253,1.518,3.253,3.47
			C63.107,12.036,61.806,13.554,59.854,13.554z"/>
		<path fill="#FFFFFF" d="M70.262,5.53L70.262,5.53V4.554h-2.385v11.061h2.71v-6.29c0-1.626,0.651-2.602,2.387-2.71V4.229
			C71.564,4.229,71.023,4.446,70.262,5.53z"/>
		<circle fill="#FFFFFF" cx="35.349" cy="10.084" r="1.41"/>
	</g>
	<g opacity="0.2">
		<path fill="#38363A" d="M6.615,10.192h6.181c-0.868,1.627-2.494,2.711-4.337,2.711c-2.168,0-4.012-1.084-4.771-3.144
			C3.47,9.108,3.253,8.458,3.253,7.807c0-2.819,2.168-5.205,5.097-5.205c1.517,0,3.144,0.759,4.012,2.061h3.252
			C14.638,1.843,11.385,0,8.458,0C4.23,0,0.542,3.362,0.542,7.699c0,4.336,3.688,7.699,7.916,7.699c4.12,0,7.806-3.253,7.806-7.482
			V7.59H6.615V10.192L6.615,10.192z"/>
		<path fill="#38363A" d="M23.204,3.687c-3.362,0-5.855,2.602-5.855,5.963c0,3.253,2.493,5.855,5.855,5.855
			c2.386,0,4.663-1.627,5.313-3.904h-2.819c-0.542,0.976-1.519,1.409-2.603,1.409c-1.085,0-2.061-0.542-2.711-1.517
			c-0.109-0.217-0.326-0.542-0.326-0.76h8.567c0.108-0.434,0.108-0.867,0.108-1.301C28.843,6.289,26.349,3.687,23.204,3.687z
			 M20.06,8.674c0.435-1.626,1.518-2.494,3.145-2.494c1.627,0,2.711,0.976,3.036,2.494H20.06z"/>
		<path fill="#38363A" d="M35.89,3.687c-3.252,0-5.963,2.711-5.963,5.963s2.711,5.855,5.963,5.855c3.362,0,5.856-2.603,5.856-5.963
			C41.746,6.289,39.143,3.687,35.89,3.687z M35.89,13.12c-1.952,0-3.252-1.626-3.252-3.47s1.41-3.47,3.252-3.47
			c1.844,0,3.253,1.735,3.253,3.47C39.143,11.494,37.842,13.12,35.89,13.12z"/>
		<path fill="#38363A" d="M50.746,7.048c1.084-0.65,1.626-1.518,1.626-2.82c0-0.976-0.542-2.06-1.301-2.71
			c-1.193-1.084-2.711-1.193-4.229-1.193h-3.253v14.746h4.013c1.301,0,2.71-0.107,3.795-0.867c1.192-0.759,1.843-2.06,1.843-3.47
			C53.348,8.891,52.48,7.699,50.746,7.048z M46.408,2.927h1.193c1.084,0,2.168,0.325,2.168,1.626c0,1.301-1.192,1.626-2.168,1.626
			h-1.085V2.927H46.408z M47.818,12.578h-1.41V8.674h1.41c1.302,0,2.711,0.434,2.711,1.952
			C50.529,12.252,49.119,12.578,47.818,12.578z"/>
		<path fill="#38363A" d="M63.757,5.422L63.757,5.422c-0.108-0.109-0.325-0.325-0.434-0.434c-0.867-0.868-2.061-1.301-3.253-1.301
			c-3.253,0-5.531,2.711-5.531,5.855c0,3.144,2.061,5.963,5.422,5.963c1.41,0,3.037-0.651,3.904-1.735v1.41h2.493V4.012h-2.602
			V5.422L63.757,5.422z M60.396,13.12c-1.952,0-3.253-1.518-3.253-3.47s1.301-3.578,3.253-3.578s3.253,1.518,3.253,3.469
			C63.649,11.494,62.348,13.12,60.396,13.12z"/>
		<path fill="#38363A" d="M70.806,4.988L70.806,4.988V4.012h-2.387v11.06h2.712V8.784c0-1.626,0.65-2.603,2.385-2.711V3.687
			C72.107,3.687,71.564,4.012,70.806,4.988z"/>
		<circle fill="#38363A" cx="35.89" cy="9.542" r="1.409"/>
	</g>
</g>
</svg>
